<svg width="128" height="48" viewBox="0 0 128 48" fill="none" xmlns="http://www.w3.org/2000/svg">
<path d="M45.5457 22.5407H49.558V39.6445H45.5457V22.5407ZM47.5679 19.722C46.8404 19.722 46.2305 19.4978 45.7383 19.0494C45.246 18.5797 45 18.0032 45 17.3198C45 16.6365 45.246 16.0707 45.7383 15.6223C46.2305 15.1525 46.8404 14.9176 47.5679 14.9176C48.2954 14.9176 48.9053 15.1418 49.3975 15.5902C49.8898 16.0173 50.1358 16.5618 50.1358 17.2237C50.1358 17.9284 49.8898 18.5262 49.3975 19.0174C48.9268 19.4871 48.3169 19.722 47.5679 19.722ZM71.5798 22.5407V39.6445H67.76V37.4344C67.0966 38.2459 66.2728 38.8545 65.2884 39.2601C64.3255 39.6658 63.2555 39.8687 62.0786 39.8687C60.4094 39.8687 58.9114 39.5056 57.5848 38.7797C56.2793 38.0537 55.2522 37.0288 54.5033 35.7048C53.7756 34.3809 53.4119 32.8435 53.4119 31.0926C53.4119 29.3417 53.7756 27.8148 54.5033 26.5123C55.2522 25.1884 56.2793 24.1634 57.5848 23.4375C58.9114 22.7115 60.4094 22.3485 62.0786 22.3485C63.1913 22.3485 64.2077 22.5407 65.128 22.925C66.0694 23.3094 66.8826 23.8752 67.5675 24.6226V22.5407H71.5798ZM62.528 36.4415C64.0045 36.4415 65.2243 35.9503 66.1872 34.9682C67.1502 33.986 67.6316 32.6941 67.6316 31.0926C67.6316 29.4911 67.1502 28.1992 66.1872 27.217C65.2243 26.2348 64.0045 25.7436 62.528 25.7436C61.0514 25.7436 59.8317 26.2348 58.8687 27.217C57.9271 28.1992 57.4564 29.4911 57.4564 31.0926C57.4564 32.6941 57.9271 33.986 58.8687 34.9682C59.8317 35.9503 61.0514 36.4415 62.528 36.4415ZM82.4787 39.8687C80.7025 39.8687 79.3117 39.3882 78.3059 38.4274C77.3216 37.4452 76.8294 36.0679 76.8294 34.2955V15.8785H80.8417V34.0073C80.8417 35.7156 81.6442 36.5696 83.2491 36.5696C83.784 36.5696 84.2655 36.4628 84.6935 36.2493L84.8861 39.4523C84.1371 39.7298 83.3346 39.8687 82.4787 39.8687ZM95.0027 39.8687C93.2693 39.8687 91.7073 39.4951 90.3163 38.7477C88.9254 38.0002 87.8341 36.9647 87.0422 35.6408C86.2718 34.2955 85.8866 32.7794 85.8866 31.0926C85.8866 29.4057 86.2718 27.9003 87.0422 26.5764C87.8341 25.2524 88.9254 24.2169 90.3163 23.4695C91.7073 22.7221 93.2693 22.3485 95.0027 22.3485C96.7575 22.3485 98.3303 22.7221 99.7212 23.4695C101.112 24.2169 102.193 25.2524 102.963 26.5764C103.755 27.9003 104.151 29.4057 104.151 31.0926C104.151 32.7794 103.755 34.2955 102.963 35.6408C102.193 36.9647 101.112 38.0002 99.7212 38.7477C98.3303 39.4951 96.7575 39.8687 95.0027 39.8687ZM95.0027 36.4415C96.4792 36.4415 97.699 35.9503 98.6619 34.9682C99.6249 33.986 100.106 32.6941 100.106 31.0926C100.106 29.4911 99.6249 28.1992 98.6619 27.217C97.699 26.2348 96.4792 25.7436 95.0027 25.7436C93.5261 25.7436 92.3064 26.2348 91.3434 27.217C90.402 28.1992 89.9311 29.4911 89.9311 31.0926C89.9311 32.6941 90.402 33.986 91.3434 34.9682C92.3064 35.9503 93.5261 36.4415 95.0027 36.4415ZM125 22.5407V37.0501C125 43.0717 121.919 46.0824 115.756 46.0824C114.108 46.0824 112.546 45.869 111.069 45.4419C109.593 45.0362 108.373 44.4382 107.41 43.6482L109.207 40.6374C109.956 41.2567 110.898 41.7477 112.032 42.1108C113.188 42.4951 114.354 42.6873 115.531 42.6873C117.414 42.6873 118.794 42.2602 119.672 41.4061C120.549 40.552 120.988 39.2494 120.988 37.4985V36.6017C120.303 37.3491 119.468 37.9149 118.484 38.2992C117.5 38.6836 116.419 38.8758 115.242 38.8758C113.616 38.8758 112.139 38.5342 110.812 37.8508C109.507 37.1462 108.469 36.164 107.699 34.9041C106.95 33.6442 106.575 32.2029 106.575 30.5801C106.575 28.9573 106.95 27.5265 107.699 26.2881C108.469 25.0282 109.507 24.0568 110.812 23.3734C112.139 22.6901 113.616 22.3485 115.242 22.3485C116.483 22.3485 117.607 22.5514 118.612 22.957C119.64 23.3627 120.495 23.982 121.18 24.8148V22.5407H125ZM115.852 35.4806C117.371 35.4806 118.612 35.0322 119.575 34.1354C120.56 33.2173 121.052 32.0322 121.052 30.5801C121.052 29.1495 120.56 27.9857 119.575 27.0889C118.612 26.192 117.371 25.7436 115.852 25.7436C114.311 25.7436 113.049 26.192 112.064 27.0889C111.101 27.9857 110.62 29.1495 110.62 30.5801C110.62 32.0322 111.101 33.2173 112.064 34.1354C113.049 35.0322 114.311 35.4806 115.852 35.4806Z" fill="#191919"/>
<mask id="mask0_884_617" style="mask-type:luminance" maskUnits="userSpaceOnUse" x="0" y="0" width="43" height="43">
<path d="M43 0H0V43H43V0Z" fill="white"/>
</mask>
<g mask="url(#mask0_884_617)">
<path d="M40.7567 7.31208C42.1561 5.9127 42.1561 3.64386 40.7567 2.24448C39.3573 0.845101 37.0885 0.845101 35.6891 2.24448L40.7567 7.31208ZM37.5715 10.4973L40.7567 7.31208L35.6891 2.24448L32.5039 5.42967L37.5715 10.4973Z" fill="#7D1CA6"/>
<path fill-rule="evenodd" clip-rule="evenodd" d="M22.2967 1.59351C11.7419 1.59351 3.18555 10.1498 3.18555 20.7046V36.8755C3.18555 38.4993 4.5019 39.8157 6.12571 39.8157H22.2967C32.8514 39.8157 41.4078 31.2594 41.4078 20.7046C41.4078 10.1498 32.8514 1.59351 22.2967 1.59351ZM22.2967 6.37128C14.3806 6.37128 7.96332 12.7885 7.96332 20.7046V32.8328C7.96332 34.0507 8.95059 35.0379 10.1685 35.0379H22.2967C30.2128 35.0379 36.63 28.6208 36.63 20.7046C36.63 12.7885 30.2128 6.37128 22.2967 6.37128Z" fill="#191919"/>
<path fill-rule="evenodd" clip-rule="evenodd" d="M28.6922 29.8348C30.0121 28.9107 31.1161 27.7113 31.9279 26.3194C32.7396 24.9274 33.24 23.3759 33.3943 21.772C33.5488 20.1681 33.3537 18.5497 32.8224 17.0285C32.2911 15.5072 31.4364 14.1192 30.3171 12.9601C29.1978 11.801 27.8405 10.8983 26.3387 10.3143C24.8368 9.7303 23.2263 9.47882 21.6179 9.57719C20.0095 9.67557 18.4416 10.1214 17.0223 10.8841C15.627 11.6338 14.4078 12.6722 13.4456 13.9296C13.0056 14.4758 12.7422 15.1703 12.7422 15.9263C12.7422 17.6853 14.1681 19.1111 15.9271 19.1111C16.9733 19.1111 17.9016 18.6067 18.4822 17.828C19.3543 16.6727 20.7394 15.9263 22.2984 15.9263C24.9369 15.9263 27.0757 18.0651 27.0757 20.7037C27.0757 22.246 26.3449 23.6175 25.2108 24.4909C25.1794 24.5135 25.1485 24.5368 25.1181 24.5605C25.092 24.5798 25.0655 24.5987 25.0388 24.6173L25.042 24.6218C24.3382 25.206 23.8902 26.0875 23.8902 27.0734C23.8902 28.8325 25.3161 30.2585 27.0751 30.2585C27.6619 30.2585 28.2117 30.0997 28.6838 29.8229L28.6922 29.8348Z" fill="#D9BFE4"/>
<path d="M4.77734 38.2227L15.9255 27.0746" stroke="#7D1CA6" stroke-width="7.2" stroke-linecap="round"/>
</g>
</svg>
