<svg width="125" height="48" viewBox="0 0 125 48" fill="none" xmlns="http://www.w3.org/2000/svg">
<g clip-path="url(#clip0_884_538)">
<path d="M45.8233 22.912H49.8233V40H45.8233V22.912ZM47.8393 20.096C47.114 20.096 46.506 19.872 46.0153 19.424C45.5246 18.9547 45.2793 18.3787 45.2793 17.696C45.2793 17.0133 45.5246 16.448 46.0153 16C46.506 15.5307 47.114 15.296 47.8393 15.296C48.5646 15.296 49.1726 15.52 49.6633 15.968C50.154 16.3947 50.3993 16.9387 50.3993 17.6C50.3993 18.304 50.154 18.9013 49.6633 19.392C49.194 19.8613 48.586 20.096 47.8393 20.096ZM71.7774 22.912V40H67.9694V37.792C67.3079 38.6027 66.4867 39.2107 65.5054 39.616C64.5454 40.0213 63.4787 40.224 62.3054 40.224C60.6414 40.224 59.1479 39.8613 57.8254 39.136C56.5239 38.4107 55.4999 37.3867 54.7534 36.064C54.0279 34.7413 53.6654 33.2053 53.6654 31.456C53.6654 29.7067 54.0279 28.1813 54.7534 26.88C55.4999 25.5573 56.5239 24.5333 57.8254 23.808C59.1479 23.0827 60.6414 22.72 62.3054 22.72C63.4147 22.72 64.4279 22.912 65.3454 23.296C66.2839 23.68 67.0947 24.2453 67.7774 24.992V22.912H71.7774ZM62.7534 36.8C64.2254 36.8 65.4414 36.3093 66.4014 35.328C67.3614 34.3467 67.8414 33.056 67.8414 31.456C67.8414 29.856 67.3614 28.5653 66.4014 27.584C65.4414 26.6027 64.2254 26.112 62.7534 26.112C61.2814 26.112 60.0654 26.6027 59.1054 27.584C58.1667 28.5653 57.6974 29.856 57.6974 31.456C57.6974 33.056 58.1667 34.3467 59.1054 35.328C60.0654 36.3093 61.2814 36.8 62.7534 36.8ZM82.6428 40.224C80.8721 40.224 79.4855 39.744 78.4828 38.784C77.5015 37.8027 77.0108 36.4267 77.0108 34.656V16.256H81.0108V34.368C81.0108 36.0747 81.8108 36.928 83.4108 36.928C83.9441 36.928 84.4241 36.8213 84.8508 36.608L85.0428 39.808C84.2961 40.0853 83.4961 40.224 82.6428 40.224ZM95.1283 40.224C93.4003 40.224 91.843 39.8507 90.4563 39.104C89.0697 38.3573 87.9817 37.3227 87.1923 36C86.4243 34.656 86.0403 33.1413 86.0403 31.456C86.0403 29.7707 86.4243 28.2667 87.1923 26.944C87.9817 25.6213 89.0697 24.5867 90.4563 23.84C91.843 23.0933 93.4003 22.72 95.1283 22.72C96.8777 22.72 98.4457 23.0933 99.8323 23.84C101.219 24.5867 102.296 25.6213 103.064 26.944C103.854 28.2667 104.248 29.7707 104.248 31.456C104.248 33.1413 103.854 34.656 103.064 36C102.296 37.3227 101.219 38.3573 99.8323 39.104C98.4457 39.8507 96.8777 40.224 95.1283 40.224ZM95.1283 36.8C96.6003 36.8 97.8163 36.3093 98.7763 35.328C99.7363 34.3467 100.216 33.056 100.216 31.456C100.216 29.856 99.7363 28.5653 98.7763 27.584C97.8163 26.6027 96.6003 26.112 95.1283 26.112C93.6563 26.112 92.4403 26.6027 91.4803 27.584C90.5417 28.5653 90.0723 29.856 90.0723 31.456C90.0723 33.056 90.5417 34.3467 91.4803 35.328C92.4403 36.3093 93.6563 36.8 95.1283 36.8ZM125.033 22.912V37.408C125.033 43.424 121.961 46.432 115.817 46.432C114.175 46.432 112.617 46.2187 111.145 45.792C109.673 45.3867 108.457 44.7893 107.497 44L109.289 40.992C110.036 41.6107 110.975 42.1013 112.105 42.464C113.257 42.848 114.42 43.04 115.593 43.04C117.471 43.04 118.847 42.6133 119.721 41.76C120.596 40.9067 121.033 39.6053 121.033 37.856V36.96C120.351 37.7067 119.519 38.272 118.537 38.656C117.556 39.04 116.479 39.232 115.305 39.232C113.684 39.232 112.212 38.8907 110.889 38.208C109.588 37.504 108.553 36.5227 107.785 35.264C107.039 34.0053 106.665 32.5653 106.665 30.944C106.665 29.3227 107.039 27.8933 107.785 26.656C108.553 25.3973 109.588 24.4267 110.889 23.744C112.212 23.0613 113.684 22.72 115.305 22.72C116.543 22.72 117.663 22.9227 118.665 23.328C119.689 23.7333 120.543 24.352 121.225 25.184V22.912H125.033ZM115.913 35.84C117.428 35.84 118.665 35.392 119.625 34.496C120.607 33.5787 121.097 32.3947 121.097 30.944C121.097 29.5147 120.607 28.352 119.625 27.456C118.665 26.56 117.428 26.112 115.913 26.112C114.377 26.112 113.119 26.56 112.137 27.456C111.177 28.352 110.697 29.5147 110.697 30.944C110.697 32.3947 111.177 33.5787 112.137 34.496C113.119 35.392 114.377 35.84 115.913 35.84Z" fill="#191919"/>
<mask id="mask0_884_538" style="mask-type:luminance" maskUnits="userSpaceOnUse" x="0" y="0" width="44" height="44">
<path d="M43.2 0H0V43.2H43.2V0Z" fill="white"/>
</mask>
<g mask="url(#mask0_884_538)">
<path d="M40.9465 7.34558C42.3524 5.9397 42.3524 3.6603 40.9465 2.25442C39.5406 0.848529 37.2612 0.848529 35.8553 2.25442L40.9465 7.34558ZM37.7465 10.5456L40.9465 7.34558L35.8553 2.25442L32.6553 5.45442L37.7465 10.5456Z" fill="#BE8AD4"/>
<path fill-rule="evenodd" clip-rule="evenodd" d="M22.4002 1.6C11.7963 1.6 3.2002 10.1961 3.2002 20.8V37.0461C3.2002 38.6774 4.52268 40 6.15404 40H22.4002C33.004 40 41.6002 31.4038 41.6002 20.8C41.6002 10.1961 33.004 1.6 22.4002 1.6ZM22.4002 6.4C14.4473 6.4 8.0002 12.8471 8.0002 20.8V32.9846C8.0002 34.2082 8.99205 35.2 10.2156 35.2H22.4002C30.3532 35.2 36.8002 28.753 36.8002 20.8C36.8002 12.8471 30.3532 6.4 22.4002 6.4Z" fill="#191919"/>
<path fill-rule="evenodd" clip-rule="evenodd" d="M28.8259 29.9736C30.152 29.0451 31.2612 27.8402 32.0767 26.4418C32.8922 25.0434 33.3949 23.4846 33.5499 21.8733C33.7051 20.2619 33.5092 18.636 32.9754 17.1077C32.4416 15.5793 31.5829 14.1849 30.4584 13.0204C29.334 11.8559 27.9703 10.949 26.4615 10.3623C24.9527 9.77555 23.3346 9.5229 21.7187 9.62173C20.1029 9.72056 18.5277 10.1685 17.1018 10.9348C15.7 11.688 14.4751 12.7311 13.5084 13.9944C13.0664 14.5431 12.8018 15.2408 12.8018 16.0003C12.8018 17.7675 14.2343 19.2 16.0015 19.2C17.0525 19.2 17.9851 18.6933 18.5685 17.9109C19.4447 16.7502 20.8362 16.0003 22.4024 16.0003C25.0531 16.0003 27.202 18.1491 27.202 20.8C27.202 22.3494 26.4677 23.7274 25.3283 24.6048C25.2968 24.6275 25.2658 24.6509 25.2352 24.6747C25.209 24.6941 25.1824 24.7131 25.1556 24.7318L25.1587 24.7363C24.4517 25.3232 24.0016 26.2088 24.0016 27.1994C24.0016 28.9666 25.4341 30.3992 27.2013 30.3992C27.7909 30.3992 28.3432 30.2397 28.8175 29.9616L28.8259 29.9736Z" fill="#D9BFE4"/>
<path d="M4.7998 38.4L15.9998 27.2" stroke="#BE8AD4" stroke-width="7.2" stroke-linecap="round"/>
</g>
</g>
<defs>
<clipPath id="clip0_884_538">
<rect width="125" height="48" fill="white"/>
</clipPath>
</defs>
</svg>
