<svg width="120" height="107" viewBox="0 0 120 107" fill="none" xmlns="http://www.w3.org/2000/svg">
<path d="M33.5718 29.1418C32.3009 29.4198 31.0214 30.0329 29.9893 30.8586C28.5222 32.0359 27.5499 33.6219 27.149 35.494C26.9869 36.2216 26.9869 36.8593 27.0125 54.2155C27.0381 74.1061 26.9869 72.4874 27.584 73.9181C28.5308 76.199 30.7826 78.1038 33.2647 78.7252C33.5462 78.7987 34.1347 78.8887 34.5783 78.9377C35.1157 78.9868 43.7136 79.0113 60.1246 78.995L84.8606 78.9704L85.6709 78.7415C87.3342 78.2755 88.5881 77.5397 89.7652 76.338C90.857 75.2261 91.582 73.8281 91.8549 72.3321C92.0426 71.3101 92.0511 36.6549 91.8635 35.6412C91.309 32.6081 89.0487 30.2046 85.8671 29.2481L85.1165 29.0192L59.6981 29.0028C35.0815 28.9946 34.2542 28.9946 33.5718 29.1418ZM85.1165 30.8504C86.3533 31.1366 87.2745 31.6353 88.1957 32.4937C89.0657 33.3112 89.5604 34.096 89.9528 35.2733L90.149 35.8864V53.9539C90.149 71.0485 90.1405 72.0459 89.9955 72.5528C89.4922 74.3023 88.2213 75.7739 86.5068 76.5996C85.0056 77.319 87.6754 77.2536 59.4422 77.2536C31.2517 77.2536 34.0239 77.319 32.4885 76.5996C31.1238 75.9619 30.1173 75.0054 29.4605 73.7382C28.7611 72.3729 28.8208 74.2941 28.7952 54.2564C28.7781 36.9819 28.7781 36.3851 28.9402 35.6494C29.2046 34.3904 29.8017 33.393 30.8423 32.4528C31.5332 31.8315 32.1473 31.4472 32.9662 31.1284C34.1177 30.6869 32.6165 30.7115 59.4849 30.7033C83.8371 30.6951 84.4512 30.7033 85.1165 30.8504Z" fill="black"/>
<path d="M32.9495 37.3094C32.7363 37.522 32.7021 37.6119 32.7021 38.0125C32.7021 38.4131 32.7363 38.503 32.9495 38.7156L33.1969 38.9526H34.7919H36.387L36.677 38.6747C36.9158 38.4458 36.967 38.3313 36.967 38.0615C36.967 37.6691 36.7879 37.2767 36.549 37.1541C36.4467 37.105 35.7216 37.0723 34.7919 37.0723H33.1969L32.9495 37.3094Z" fill="black"/>
<path d="M82.3782 37.2195C81.8323 37.6364 81.8921 38.6011 82.4721 38.8545C82.6171 38.9199 83.2227 38.9526 84.2292 38.9526H85.773L86.0204 38.7156C86.2336 38.503 86.2678 38.4131 86.2678 38.0125C86.2678 37.6119 86.2336 37.522 86.0204 37.3094L85.773 37.0723H84.1609C82.7706 37.0723 82.5318 37.0968 82.3782 37.2195Z" fill="black"/>
<path d="M52.269 42.3368C52.0387 42.4431 51.6975 42.6883 51.5269 42.8845C50.9213 43.5549 50.9554 42.9581 50.9554 53.9948C50.9554 65.0315 50.9213 64.4347 51.5269 65.1051C52.0984 65.7509 53.1817 66.0371 54.0346 65.7509C54.1967 65.7019 55.0582 65.2114 55.9453 64.6636C57.9242 63.4455 66.0103 58.4831 68.535 56.9216C70.4542 55.7443 70.7016 55.5318 70.966 54.8369C71.1195 54.4118 71.111 53.6106 70.9489 53.1528C70.693 52.4252 70.531 52.3107 66.0529 49.5801C65.5582 49.2858 63.3149 47.896 61.0631 46.5062C53.4205 41.7727 54.0943 42.1488 53.2158 42.1488C52.849 42.1406 52.5761 42.1978 52.269 42.3368ZM54.282 44.2825C56.2012 45.4761 56.8494 45.8767 59.2292 47.3483C60.611 48.1985 63.3746 49.899 65.3705 51.1253C67.3665 52.3516 69.0809 53.4389 69.1918 53.5533C69.3965 53.7823 69.4307 54.1011 69.2686 54.3791C69.1833 54.5344 67.1106 55.8343 63.5367 58.0007C63.1187 58.2542 61.2934 59.3742 59.4851 60.4942C57.6768 61.606 55.587 62.8977 54.8279 63.3637C53.992 63.8788 53.3693 64.214 53.2328 64.214C53.0964 64.214 52.9514 64.1322 52.8405 64.0014C52.6614 63.7807 52.6614 63.7725 52.6614 53.9948C52.6614 44.2171 52.6614 44.2089 52.8405 43.9882C53.1049 43.6612 53.3693 43.7184 54.282 44.2825Z" fill="black"/>
<path d="M33.0686 45.8193C32.7957 45.9746 32.5995 46.3916 32.6592 46.6941C32.6762 46.7758 32.6933 46.8903 32.6933 46.9475C32.7018 47.0129 32.8127 47.1682 32.9492 47.299L33.1966 47.5361H34.8087C35.9346 47.528 36.4549 47.5034 36.5402 47.4299C36.8131 47.2255 36.9667 46.923 36.9667 46.5714C36.9667 46.269 36.9155 46.1627 36.6767 45.9338L36.3866 45.6558H34.8684C33.5036 45.6558 33.316 45.6722 33.0686 45.8193Z" fill="black"/>
<path d="M82.2939 45.9338C82.0466 46.1709 82.0039 46.269 82.0039 46.5878C82.0039 46.8821 82.0551 47.0129 82.2683 47.25L82.5327 47.5361H84.1534H85.774L86.0214 47.299C86.2346 47.0865 86.2687 46.9966 86.2687 46.596C86.2687 46.1954 86.2346 46.1055 86.0214 45.8929L85.774 45.6558H84.179H82.5839L82.2939 45.9338Z" fill="black"/>
<path d="M33.6063 54.2317C32.941 54.3053 32.7021 54.5506 32.7021 55.1801C32.7021 55.5316 32.7448 55.6706 32.9069 55.8505L33.1116 56.0794L34.7493 56.1039L36.3784 56.1284L36.6684 55.8505C36.9158 55.6134 36.967 55.5071 36.967 55.2046C36.967 54.7795 36.7111 54.338 36.4381 54.289C36.0884 54.2236 34.1266 54.1827 33.6063 54.2317Z" fill="black"/>
<path d="M82.2665 54.4934C81.823 54.9185 81.9253 55.7197 82.4627 55.9977C82.6845 56.1121 82.9574 56.1285 84.288 56.1039L85.8575 56.0794L86.0622 55.8505C86.2243 55.6706 86.2669 55.5317 86.2669 55.1719C86.2669 54.7795 86.2328 54.6814 86.0195 54.477L85.7722 54.24H84.1516H82.5309L82.2665 54.4934Z" fill="black"/>
<path d="M32.9495 63.0613C32.7363 63.2739 32.7021 63.3638 32.7021 63.7644C32.7021 64.165 32.7363 64.2549 32.9495 64.4675L33.1969 64.7046H34.809C36.4978 64.6964 36.5405 64.6882 36.822 64.2958C37.1035 63.9116 36.967 63.2494 36.5405 62.9305C36.4552 62.857 35.9349 62.8324 34.809 62.8243H33.1969L32.9495 63.0613Z" fill="black"/>
<path d="M82.2939 63.1022C82.0466 63.3393 82.0039 63.4374 82.0039 63.7563C82.0039 64.0506 82.0551 64.1814 82.2683 64.4185L82.5327 64.7046H84.1534H85.774L86.0214 64.4675C86.2346 64.2549 86.2687 64.165 86.2687 63.7644C86.2687 63.3638 86.2346 63.2739 86.0214 63.0613L85.774 62.8243H84.179H82.5839L82.2939 63.1022Z" fill="black"/>
<path d="M33.1116 71.539C32.796 71.7025 32.7021 71.8905 32.7021 72.4056C32.7021 73.2558 33.1883 73.4193 35.3719 73.313C36.7367 73.2476 36.8817 73.1659 36.9499 72.4464C36.984 72.005 36.9755 71.9723 36.6855 71.6943L36.387 71.4082H34.8687C33.6916 71.4163 33.2907 71.4409 33.1116 71.539Z" fill="black"/>
<path d="M82.4552 71.5063C81.9775 71.7271 81.8496 72.6918 82.2505 73.0678C82.4808 73.2886 83.419 73.3785 84.8179 73.3131C85.7391 73.264 85.8073 73.2477 86.0291 73.0351C86.2338 72.8471 86.2679 72.7408 86.2679 72.3484C86.2679 71.9478 86.2338 71.8579 86.0206 71.6453L85.7732 71.4082L84.2038 71.4164C83.3082 71.4164 82.5661 71.4573 82.4552 71.5063Z" fill="black"/>
</svg>
