<svg width="125" height="83" viewBox="0 0 125 83" fill="none" xmlns="http://www.w3.org/2000/svg">
<rect width="125" height="83" rx="41.5" fill="#F6BFAB"/>
<path d="M38.722 14.2398C34.6305 14.9833 31.0879 18.2822 30.2148 22.2084C30.0401 23.0448 29.9653 27.7609 30.0152 37.0073C30.09 50.5748 30.09 50.5748 30.6638 51.899C32.3852 55.8485 35.828 58.1949 40.3935 58.5202L42.1898 58.6596V62.4696C42.1898 66.5352 42.3644 67.2554 43.4871 67.9756C44.1357 68.417 45.4829 68.4635 46.2563 68.0685C46.5556 67.9292 49.25 65.7221 52.2438 63.1898L57.6575 58.5899H60.4017C62.9215 58.5899 63.146 58.5434 63.4953 58.0788C64.0441 57.3586 63.9942 56.8242 63.3456 56.406C62.5972 55.9182 57.5327 55.8949 56.3352 56.3596C55.6117 56.6384 47.2292 63.608 45.8072 65.0716C45.3581 65.5595 45.3083 65.5595 45.1586 65.1645C45.0588 64.9322 44.959 63.004 44.959 60.8898C44.934 56.104 45.0089 56.2202 41.4663 56.0111C39.8447 55.9182 38.6971 55.7323 37.8987 55.3838C36.2522 54.7101 34.3811 53.0142 33.6825 51.5505L33.0838 50.3425L33.0089 36.6123C32.9341 23.2074 32.959 22.8357 33.458 21.5812C34.1066 19.9549 35.5287 18.4681 37.2251 17.5853L38.5723 16.8883L60.5764 16.8186C82.2312 16.7721 82.5804 16.7721 83.9276 17.2368C86.9214 18.2822 88.7675 20.6287 89.0669 23.7882C89.2415 25.7629 89.4661 26.1347 90.464 26.1347C91.5368 26.1347 92.0856 25.4609 92.0856 24.1135C92.0856 20.6751 89.5409 16.7721 86.3725 15.2853C83.5534 13.9378 84.3767 13.9843 61.1751 14.0075C49.4247 14.0308 39.3208 14.1237 38.722 14.2398Z" fill="black"/>
<path d="M109.874 14.8669C109.176 15.0992 108.178 15.5871 107.679 15.9355C107.18 16.3073 98.5229 24.2294 88.4439 33.5687L70.1321 50.5281L69.4835 52.5261C69.1342 53.618 67.9866 57.0795 66.9637 60.2159C65.9409 63.3522 65.0677 66.3724 65.0677 66.9067C65.0178 67.7663 65.1176 68.0218 65.7662 68.5097C66.4149 68.9976 66.6893 69.0673 67.7621 68.9511C69.4585 68.7885 84.9013 64.1189 85.7246 63.5148C86.0739 63.2593 94.6559 55.3604 104.785 45.9978C122.124 29.9445 123.221 28.899 123.645 27.7374C124.219 26.0647 124.094 23.788 123.296 22.2314C122.448 20.582 117.558 16.1214 115.637 15.2386C113.791 14.4022 111.695 14.2628 109.874 14.8669ZM114.689 17.8406C116.136 18.7234 120.003 22.3476 120.502 23.2769C121.824 25.6698 121.45 26.6688 118.182 29.7122L115.662 32.0818L110.248 27.4354C107.255 24.8799 104.81 22.7193 104.81 22.6031C104.81 22.3011 109.974 17.7012 110.598 17.4689C111.795 17.0274 113.666 17.1901 114.689 17.8406ZM105.833 27.5748C107.654 29.1081 110.099 31.1293 111.271 32.0818C112.444 33.0111 113.417 33.8475 113.442 33.9404C113.492 34.2889 84.8265 60.5411 84.6518 60.3088C84.552 60.1694 82.182 58.0321 79.3629 55.5695C76.5437 53.0836 74.2236 50.9927 74.1737 50.8998C74.0739 50.6907 102.115 24.6708 102.365 24.7405C102.465 24.7637 104.011 26.0415 105.833 27.5748ZM81.0593 60.7967C81.7828 61.4239 82.2818 62.0047 82.182 62.0977C82.0822 62.1674 80.6352 62.632 78.9886 63.1199C77.3421 63.5845 74.2984 64.4906 72.2527 65.1178C70.182 65.7451 68.4107 66.2562 68.3109 66.2562C68.0615 66.2562 68.0365 66.3491 69.3338 62.4229C69.8826 60.7502 70.6311 58.4502 70.9804 57.3119C71.3546 56.1503 71.8286 54.7796 72.0282 54.222L72.4273 53.2462L76.0697 56.4523C78.0905 58.2179 80.3358 60.1694 81.0593 60.7967Z" fill="black"/>
<path d="M45.5587 33.8003C44.8103 34.4973 44.6855 34.7761 44.6855 35.6821C44.6855 37.4245 45.908 38.6094 47.6793 38.6094C50.2489 38.6094 51.6211 35.8215 49.9745 33.9862C49.3508 33.2892 49.1013 33.1731 47.8539 33.0801C46.5067 32.9872 46.407 33.0104 45.5587 33.8003Z" fill="black"/>
<path d="M57.5084 33.8245C56.7849 34.4982 56.6602 34.777 56.6602 35.7063C56.6602 37.6578 58.1071 38.7961 60.2277 38.5406C61.7246 38.3547 62.6477 37.3557 62.6477 35.9153C62.6477 34.1265 61.4252 33.0346 59.3795 33.0346C58.5562 33.0346 58.2069 33.174 57.5084 33.8245Z" fill="black"/>
<path d="M69.483 33.8234C68.7845 34.4739 68.6348 34.7991 68.6348 35.5658C68.6348 37.587 70.0069 38.7718 72.1025 38.5395C73.7241 38.3768 74.6223 37.4011 74.6223 35.7981C74.6223 34.7526 74.5225 34.5203 73.774 33.8234C73.0256 33.1264 72.7761 33.0335 71.6285 33.0335C70.4809 33.0335 70.2314 33.1264 69.483 33.8234Z" fill="black"/>
</svg>
