<svg width="125" height="83" viewBox="0 0 125 83" fill="none" xmlns="http://www.w3.org/2000/svg">
<rect width="125" height="83" rx="41.5" fill="#BE8AD4" fill-opacity="0.43"/>
<path d="M31.1118 12.171C28.5785 12.6981 25.8451 14.9026 24.5785 17.3946C23.3118 19.9345 23.334 19.4793 23.334 40.5416C23.334 52.2588 23.4229 60.3579 23.5562 60.9569C23.934 62.6582 24.8896 64.5751 25.9785 65.7492C27.2451 67.0911 29.6229 68.361 31.5562 68.6965C33.6229 69.032 76.5785 69.032 77.534 68.6725C78.4674 68.3131 78.6896 67.4026 78.0229 66.7077L77.534 66.1805L54.2673 66.0607L31.0007 65.9409L29.9562 65.4138C28.4229 64.647 27.2451 63.377 26.5785 61.7716L26.0007 60.3579L26.0451 40.254L26.1118 20.1742L26.6229 19.1438C27.4007 17.5623 28.5785 16.2924 29.9562 15.5735L31.2229 14.9026H41.1118H51.0007L52.2451 15.5735C53.1785 16.0527 54.0673 16.8914 55.734 18.8323C56.9785 20.27 58.334 21.6119 58.7562 21.8275C59.4229 22.163 61.2007 22.2109 75.4896 22.2109C86.4451 22.2109 91.734 22.3067 92.334 22.4745C93.534 22.8339 95.4229 24.8706 95.7562 26.1646C95.9118 26.7636 96.0007 29.8547 96.0007 34.4553C96.0007 41.9793 96.0451 42.4345 96.8896 42.6023C97.5562 42.746 98.4007 42.3387 98.534 41.8115C98.7562 40.9249 98.6674 28.7045 98.4451 26.9313C98.0229 23.8163 96.6896 21.7796 94.1785 20.4377L92.6007 19.5751H76.3785H60.1562L57.3562 16.6039C54.4007 13.4888 53.2229 12.6502 51.1562 12.171C49.7562 11.8595 32.6451 11.8595 31.1118 12.171Z" fill="black"/>
<path d="M50.0657 30.0942C48.399 30.9089 48.4435 30.6453 48.4435 42.6022V53.1693L49.3324 54.1278C50.1768 55.0623 50.2657 55.0862 51.399 54.9904C52.3768 54.8945 53.2213 54.4872 56.6657 52.4025C58.9324 51.0367 62.6879 48.7604 65.0435 47.3466C67.399 45.9329 69.599 44.5671 69.9546 44.2795C71.2213 43.3211 71.4435 41.2843 70.3768 40.254C70.1101 39.9664 68.799 39.1278 67.4435 38.385C66.1101 37.6182 62.3101 35.4616 58.999 33.5926C53.9546 30.7172 51.7768 29.615 51.1101 29.639C51.0435 29.639 50.5768 29.8546 50.0657 30.0942ZM56.399 35.1262C58.9324 36.5878 62.599 38.6725 64.5546 39.7747C66.4879 40.9009 68.1324 41.9313 68.1768 42.0511C68.2879 42.4105 67.599 42.8418 59.7768 47.5623C51.399 52.5942 51.3768 52.6182 51.1101 52.1629C50.8657 51.7556 50.799 32.9217 51.0435 32.6821C51.3546 32.3227 51.9546 32.6102 56.399 35.1262Z" fill="black"/>
<path d="M83.823 46.3163C83.223 46.7476 83.1785 47.6342 83.7341 48.1613C84.1119 48.5207 85.0452 48.5687 92.7119 48.5687C100.712 48.5687 101.29 48.5447 101.623 48.1374C102.112 47.5623 102.09 46.8195 101.601 46.3402C101.223 45.9808 100.29 45.9329 92.7563 45.9329C85.4896 45.9329 84.2452 45.9808 83.823 46.3163Z" fill="black"/>
<path d="M83.778 56.7156C83.2447 57.2907 83.2225 57.6262 83.6891 58.345L84.0225 58.8722H92.6447C100.711 58.8722 101.289 58.8482 101.622 58.4409C102.111 57.8418 102.089 57.2907 101.556 56.7156C101.134 56.2604 100.822 56.2364 92.6669 56.2364C84.5114 56.2364 84.2002 56.2604 83.778 56.7156Z" fill="black"/>
<path d="M84.0897 66.3003C83.3786 66.6118 83.2008 67.6901 83.7786 68.3131C84.223 68.8163 84.423 68.8163 92.7563 68.8163C102.023 68.8163 102.001 68.8163 102.001 67.4744C102.001 66.0847 101.845 66.0607 92.7786 66.0847C88.2675 66.0847 84.3341 66.1805 84.0897 66.3003Z" fill="black"/>
</svg>
